<?xml version="1.0" encoding="UTF-8" standalone="no"?>
<!DOCTYPE svg PUBLIC "-//W3C//DTD SVG 1.1//EN"
 "http://www.w3.org/Graphics/SVG/1.1/DTD/svg11.dtd">
<!-- Generated by graphviz version 2.38.0 (20140413.2041)
 -->
<!-- Title: snakemake_dag Pages: 1 -->
<svg width="540pt" height="692pt"
 viewBox="0.00 0.00 539.50 692.00" xmlns="http://www.w3.org/2000/svg" xmlns:xlink="http://www.w3.org/1999/xlink">
<g id="graph0" class="graph" transform="scale(1 1) rotate(0) translate(4 688)">
<title>snakemake_dag</title>
<polygon fill="white" stroke="none" points="-4,4 -4,-688 535.5,-688 535.5,4 -4,4"/>
<!-- 0 -->
<g id="node1" class="node"><title>0</title>
<path fill="none" stroke="#56b1d8" stroke-width="2" d="M89,-108C89,-108 12,-108 12,-108 6,-108 0,-102 0,-96 0,-96 0,-84 0,-84 0,-78 6,-72 12,-72 12,-72 89,-72 89,-72 95,-72 101,-78 101,-84 101,-84 101,-96 101,-96 101,-102 95,-108 89,-108"/>
<text text-anchor="middle" x="50.5" y="-87.5" font-family="sans" font-size="10.00">save_parameters</text>
</g>
<!-- 10 -->
<g id="node11" class="node"><title>10</title>
<path fill="none" stroke="#88d856" stroke-width="2" d="M341.5,-36C341.5,-36 311.5,-36 311.5,-36 305.5,-36 299.5,-30 299.5,-24 299.5,-24 299.5,-12 299.5,-12 299.5,-6 305.5,-0 311.5,-0 311.5,-0 341.5,-0 341.5,-0 347.5,-0 353.5,-6 353.5,-12 353.5,-12 353.5,-24 353.5,-24 353.5,-30 347.5,-36 341.5,-36"/>
<text text-anchor="middle" x="326.5" y="-15.5" font-family="sans" font-size="10.00">results</text>
</g>
<!-- 0&#45;&gt;10 -->
<g id="edge11" class="edge"><title>0&#45;&gt;10</title>
<path fill="none" stroke="grey" stroke-width="2" d="M101.23,-75.6814C106.051,-74.4308 110.867,-73.1876 115.5,-72 176.509,-56.3601 247.563,-38.6079 289.691,-28.1309"/>
<polygon fill="grey" stroke="grey" stroke-width="2" points="290.639,-31.5018 299.5,-25.693 288.951,-24.7085 290.639,-31.5018"/>
</g>
<!-- 1 -->
<g id="node2" class="node"><title>1</title>
<path fill="none" stroke="#56d0d8" stroke-width="2" d="M257.5,-180C257.5,-180 207.5,-180 207.5,-180 201.5,-180 195.5,-174 195.5,-168 195.5,-168 195.5,-156 195.5,-156 195.5,-150 201.5,-144 207.5,-144 207.5,-144 257.5,-144 257.5,-144 263.5,-144 269.5,-150 269.5,-156 269.5,-156 269.5,-168 269.5,-168 269.5,-174 263.5,-180 257.5,-180"/>
<text text-anchor="middle" x="232.5" y="-159.5" font-family="sans" font-size="10.00">interactions</text>
</g>
<!-- 1&#45;&gt;10 -->
<g id="edge16" class="edge"><title>1&#45;&gt;10</title>
<path fill="none" stroke="grey" stroke-width="2" d="M227.959,-143.931C223.93,-124.965 220.488,-94.1055 233.5,-72 245.707,-51.2617 269.36,-37.9427 289.756,-29.8434"/>
<polygon fill="grey" stroke="grey" stroke-width="2" points="290.974,-33.125 299.143,-26.3794 288.55,-26.5579 290.974,-33.125"/>
</g>
<!-- 2 -->
<g id="node3" class="node"><title>2</title>
<path fill="none" stroke="#d8d356" stroke-width="2" d="M343.5,-252C343.5,-252 259.5,-252 259.5,-252 253.5,-252 247.5,-246 247.5,-240 247.5,-240 247.5,-228 247.5,-228 247.5,-222 253.5,-216 259.5,-216 259.5,-216 343.5,-216 343.5,-216 349.5,-216 355.5,-222 355.5,-228 355.5,-228 355.5,-240 355.5,-240 355.5,-246 349.5,-252 343.5,-252"/>
<text text-anchor="middle" x="301.5" y="-231.5" font-family="sans" font-size="10.00">uniprot_sequences</text>
</g>
<!-- 8 -->
<g id="node9" class="node"><title>8</title>
<path fill="none" stroke="#bed856" stroke-width="2" d="M329.5,-180C329.5,-180 299.5,-180 299.5,-180 293.5,-180 287.5,-174 287.5,-168 287.5,-168 287.5,-156 287.5,-156 287.5,-150 293.5,-144 299.5,-144 299.5,-144 329.5,-144 329.5,-144 335.5,-144 341.5,-150 341.5,-156 341.5,-156 341.5,-168 341.5,-168 341.5,-174 335.5,-180 329.5,-180"/>
<text text-anchor="middle" x="314.5" y="-159.5" font-family="sans" font-size="10.00">msa</text>
</g>
<!-- 2&#45;&gt;8 -->
<g id="edge8" class="edge"><title>2&#45;&gt;8</title>
<path fill="none" stroke="grey" stroke-width="2" d="M304.713,-215.697C306.146,-207.983 307.868,-198.712 309.465,-190.112"/>
<polygon fill="grey" stroke="grey" stroke-width="2" points="312.939,-190.575 311.323,-180.104 306.056,-189.297 312.939,-190.575"/>
</g>
<!-- 3 -->
<g id="node4" class="node"><title>3</title>
<path fill="none" stroke="#d85656" stroke-width="2" d="M409.5,-180C409.5,-180 371.5,-180 371.5,-180 365.5,-180 359.5,-174 359.5,-168 359.5,-168 359.5,-156 359.5,-156 359.5,-150 365.5,-144 371.5,-144 371.5,-144 409.5,-144 409.5,-144 415.5,-144 421.5,-150 421.5,-156 421.5,-156 421.5,-168 421.5,-168 421.5,-174 415.5,-180 409.5,-180"/>
<text text-anchor="middle" x="390.5" y="-159.5" font-family="sans" font-size="10.00">literature</text>
</g>
<!-- 3&#45;&gt;10 -->
<g id="edge14" class="edge"><title>3&#45;&gt;10</title>
<path fill="none" stroke="grey" stroke-width="2" d="M386.354,-143.744C381.616,-125.417 373.005,-95.8599 361.5,-72 357.021,-62.7118 351.144,-53.1371 345.488,-44.7247"/>
<polygon fill="grey" stroke="grey" stroke-width="2" points="348.317,-42.6618 339.742,-36.4395 342.565,-46.6513 348.317,-42.6618"/>
</g>
<!-- 4 -->
<g id="node5" class="node"><title>4</title>
<path fill="none" stroke="#9fd856" stroke-width="2" d="M324.5,-108C324.5,-108 254.5,-108 254.5,-108 248.5,-108 242.5,-102 242.5,-96 242.5,-96 242.5,-84 242.5,-84 242.5,-78 248.5,-72 254.5,-72 254.5,-72 324.5,-72 324.5,-72 330.5,-72 336.5,-78 336.5,-84 336.5,-84 336.5,-96 336.5,-96 336.5,-102 330.5,-108 324.5,-108"/>
<text text-anchor="middle" x="289.5" y="-87.5" font-family="sans" font-size="10.00">clustal_to_fasta</text>
</g>
<!-- 4&#45;&gt;10 -->
<g id="edge15" class="edge"><title>4&#45;&gt;10</title>
<path fill="none" stroke="grey" stroke-width="2" d="M298.646,-71.6966C302.903,-63.6436 308.056,-53.8945 312.766,-44.9824"/>
<polygon fill="grey" stroke="grey" stroke-width="2" points="315.88,-46.5809 317.459,-36.1043 309.692,-43.3097 315.88,-46.5809"/>
</g>
<!-- 5 -->
<g id="node6" class="node"><title>5</title>
<path fill="none" stroke="#5673d8" stroke-width="2" d="M357.5,-324C357.5,-324 303.5,-324 303.5,-324 297.5,-324 291.5,-318 291.5,-312 291.5,-312 291.5,-300 291.5,-300 291.5,-294 297.5,-288 303.5,-288 303.5,-288 357.5,-288 357.5,-288 363.5,-288 369.5,-294 369.5,-300 369.5,-300 369.5,-312 369.5,-312 369.5,-318 363.5,-324 357.5,-324"/>
<text text-anchor="middle" x="330.5" y="-303.5" font-family="sans" font-size="10.00">extract_data</text>
</g>
<!-- 5&#45;&gt;1 -->
<g id="edge1" class="edge"><title>5&#45;&gt;1</title>
<path fill="none" stroke="grey" stroke-width="2" d="M291.051,-292.321C271.854,-284.012 250.402,-271.08 238.5,-252 227.073,-233.682 226.313,-208.92 227.99,-190.166"/>
<polygon fill="grey" stroke="grey" stroke-width="2" points="231.473,-190.517 229.158,-180.178 224.52,-189.704 231.473,-190.517"/>
</g>
<!-- 5&#45;&gt;2 -->
<g id="edge2" class="edge"><title>5&#45;&gt;2</title>
<path fill="none" stroke="grey" stroke-width="2" d="M323.331,-287.697C320.065,-279.813 316.126,-270.304 312.498,-261.546"/>
<polygon fill="grey" stroke="grey" stroke-width="2" points="315.647,-260.003 308.586,-252.104 309.18,-262.683 315.647,-260.003"/>
</g>
<!-- 5&#45;&gt;3 -->
<g id="edge3" class="edge"><title>5&#45;&gt;3</title>
<path fill="none" stroke="grey" stroke-width="2" d="M343.482,-287.577C350.466,-277.571 358.792,-264.536 364.5,-252 373.59,-232.038 380.369,-208.113 384.722,-190.098"/>
<polygon fill="grey" stroke="grey" stroke-width="2" points="388.157,-190.781 387.004,-180.249 381.337,-189.201 388.157,-190.781"/>
</g>
<!-- 7 -->
<g id="node8" class="node"><title>7</title>
<path fill="none" stroke="#68d856" stroke-width="2" d="M453.5,-252C453.5,-252 423.5,-252 423.5,-252 417.5,-252 411.5,-246 411.5,-240 411.5,-240 411.5,-228 411.5,-228 411.5,-222 417.5,-216 423.5,-216 423.5,-216 453.5,-216 453.5,-216 459.5,-216 465.5,-222 465.5,-228 465.5,-228 465.5,-240 465.5,-240 465.5,-246 459.5,-252 453.5,-252"/>
<text text-anchor="middle" x="438.5" y="-231.5" font-family="sans" font-size="10.00">kegg</text>
</g>
<!-- 5&#45;&gt;7 -->
<g id="edge7" class="edge"><title>5&#45;&gt;7</title>
<path fill="none" stroke="grey" stroke-width="2" d="M356.92,-287.876C370.91,-278.808 388.276,-267.552 403.386,-257.759"/>
<polygon fill="grey" stroke="grey" stroke-width="2" points="405.491,-260.566 411.979,-252.19 401.683,-254.692 405.491,-260.566"/>
</g>
<!-- 6 -->
<g id="node7" class="node"><title>6</title>
<path fill="none" stroke="#56d882" stroke-width="2" d="M476,-468C476,-468 391,-468 391,-468 385,-468 379,-462 379,-456 379,-456 379,-444 379,-444 379,-438 385,-432 391,-432 391,-432 476,-432 476,-432 482,-432 488,-438 488,-444 488,-444 488,-456 488,-456 488,-462 482,-468 476,-468"/>
<text text-anchor="middle" x="433.5" y="-447.5" font-family="sans" font-size="10.00">uniprot_annotation</text>
</g>
<!-- 6&#45;&gt;10 -->
<g id="edge18" class="edge"><title>6&#45;&gt;10</title>
<path fill="none" stroke="grey" stroke-width="2" d="M446.224,-431.623C463.837,-405.806 493.5,-355.174 493.5,-307 493.5,-307 493.5,-307 493.5,-161 493.5,-93.0321 412.223,-50.7873 363.071,-31.4545"/>
<polygon fill="grey" stroke="grey" stroke-width="2" points="364.294,-28.175 353.703,-27.8925 361.806,-34.718 364.294,-28.175"/>
</g>
<!-- 14 -->
<g id="node15" class="node"><title>14</title>
<path fill="none" stroke="#d8b456" stroke-width="2" d="M349.5,-396C349.5,-396 311.5,-396 311.5,-396 305.5,-396 299.5,-390 299.5,-384 299.5,-384 299.5,-372 299.5,-372 299.5,-366 305.5,-360 311.5,-360 311.5,-360 349.5,-360 349.5,-360 355.5,-360 361.5,-366 361.5,-372 361.5,-372 361.5,-384 361.5,-384 361.5,-390 355.5,-396 349.5,-396"/>
<text text-anchor="middle" x="330.5" y="-375.5" font-family="sans" font-size="10.00">orthologs</text>
</g>
<!-- 6&#45;&gt;14 -->
<g id="edge23" class="edge"><title>6&#45;&gt;14</title>
<path fill="none" stroke="grey" stroke-width="2" d="M408.303,-431.876C395.086,-422.893 378.708,-411.763 364.393,-402.034"/>
<polygon fill="grey" stroke="grey" stroke-width="2" points="366.032,-398.916 355.793,-396.19 362.097,-404.705 366.032,-398.916"/>
</g>
<!-- 7&#45;&gt;10 -->
<g id="edge10" class="edge"><title>7&#45;&gt;10</title>
<path fill="none" stroke="grey" stroke-width="2" d="M439.382,-215.756C439.766,-197.439 438.789,-167.89 430.5,-144 416.159,-102.669 381.07,-65.5717 355.608,-42.7278"/>
<polygon fill="grey" stroke="grey" stroke-width="2" points="357.877,-40.0627 348.049,-36.107 353.265,-45.3286 357.877,-40.0627"/>
</g>
<!-- 8&#45;&gt;4 -->
<g id="edge4" class="edge"><title>8&#45;&gt;4</title>
<path fill="none" stroke="grey" stroke-width="2" d="M308.32,-143.697C305.505,-135.813 302.109,-126.304 298.981,-117.546"/>
<polygon fill="grey" stroke="grey" stroke-width="2" points="302.268,-116.345 295.609,-108.104 295.676,-118.699 302.268,-116.345"/>
</g>
<!-- 8&#45;&gt;10 -->
<g id="edge12" class="edge"><title>8&#45;&gt;10</title>
<path fill="none" stroke="grey" stroke-width="2" d="M327.646,-143.908C334.423,-134.006 341.987,-120.964 345.5,-108 351.096,-87.3487 345.455,-63.6411 338.899,-45.8896"/>
<polygon fill="grey" stroke="grey" stroke-width="2" points="341.982,-44.1732 335.012,-36.1941 335.485,-46.7784 341.982,-44.1732"/>
</g>
<!-- 9 -->
<g id="node10" class="node"><title>9</title>
<path fill="none" stroke="#d87556" stroke-width="2" d="M159,-540C159,-540 128,-540 128,-540 122,-540 116,-534 116,-528 116,-528 116,-516 116,-516 116,-510 122,-504 128,-504 128,-504 159,-504 159,-504 165,-504 171,-510 171,-516 171,-516 171,-528 171,-528 171,-534 165,-540 159,-540"/>
<text text-anchor="middle" x="143.5" y="-519.5" font-family="sans" font-size="10.00">phobius</text>
</g>
<!-- 9&#45;&gt;10 -->
<g id="edge13" class="edge"><title>9&#45;&gt;10</title>
<path fill="none" stroke="grey" stroke-width="2" d="M140.667,-503.566C136.576,-476.836 129.5,-424.086 129.5,-379 129.5,-379 129.5,-379 129.5,-161 129.5,-115.41 145.611,-101.346 180.5,-72 211.969,-45.5298 257.754,-31.7888 289.632,-25.0046"/>
<polygon fill="grey" stroke="grey" stroke-width="2" points="290.339,-28.4326 299.458,-23.039 288.966,-21.5686 290.339,-28.4326"/>
</g>
<!-- 11 -->
<g id="node12" class="node"><title>11</title>
<path fill="none" stroke="#56d8a2" stroke-width="2" d="M310.5,-684C310.5,-684 266.5,-684 266.5,-684 260.5,-684 254.5,-678 254.5,-672 254.5,-672 254.5,-660 254.5,-660 254.5,-654 260.5,-648 266.5,-648 266.5,-648 310.5,-648 310.5,-648 316.5,-648 322.5,-654 322.5,-660 322.5,-660 322.5,-672 322.5,-672 322.5,-678 316.5,-684 310.5,-684"/>
<text text-anchor="middle" x="288.5" y="-663.5" font-family="sans" font-size="10.00">user_input</text>
</g>
<!-- 11&#45;&gt;9 -->
<g id="edge9" class="edge"><title>11&#45;&gt;9</title>
<path fill="none" stroke="grey" stroke-width="2" d="M271.01,-647.871C245.426,-622.817 197.673,-576.052 168.422,-547.406"/>
<polygon fill="grey" stroke="grey" stroke-width="2" points="170.646,-544.685 161.052,-540.189 165.748,-549.687 170.646,-544.685"/>
</g>
<!-- 12 -->
<g id="node13" class="node"><title>12</title>
<path fill="none" stroke="#d89556" stroke-width="2" d="M222,-468C222,-468 191,-468 191,-468 185,-468 179,-462 179,-456 179,-456 179,-444 179,-444 179,-438 185,-432 191,-432 191,-432 222,-432 222,-432 228,-432 234,-438 234,-444 234,-444 234,-456 234,-456 234,-462 228,-468 222,-468"/>
<text text-anchor="middle" x="206.5" y="-447.5" font-family="sans" font-size="10.00">interpro</text>
</g>
<!-- 11&#45;&gt;12 -->
<g id="edge20" class="edge"><title>11&#45;&gt;12</title>
<path fill="none" stroke="grey" stroke-width="2" d="M281.928,-647.849C267.684,-610.675 233.874,-522.439 216.777,-477.82"/>
<polygon fill="grey" stroke="grey" stroke-width="2" points="219.95,-476.318 213.103,-468.232 213.413,-478.823 219.95,-476.318"/>
</g>
<!-- 11&#45;&gt;14 -->
<g id="edge22" class="edge"><title>11&#45;&gt;14</title>
<path fill="none" stroke="grey" stroke-width="2" d="M291.002,-647.966C298.017,-600.192 317.926,-464.623 326.496,-406.266"/>
<polygon fill="grey" stroke="grey" stroke-width="2" points="329.968,-406.709 327.958,-396.306 323.043,-405.692 329.968,-406.709"/>
</g>
<!-- 15 -->
<g id="node16" class="node"><title>15</title>
<path fill="none" stroke="#5692d8" stroke-width="2" d="M448.5,-612C448.5,-612 418.5,-612 418.5,-612 412.5,-612 406.5,-606 406.5,-600 406.5,-600 406.5,-588 406.5,-588 406.5,-582 412.5,-576 418.5,-576 418.5,-576 448.5,-576 448.5,-576 454.5,-576 460.5,-582 460.5,-588 460.5,-588 460.5,-600 460.5,-600 460.5,-606 454.5,-612 448.5,-612"/>
<text text-anchor="middle" x="433.5" y="-591.5" font-family="sans" font-size="10.00">blast</text>
</g>
<!-- 11&#45;&gt;15 -->
<g id="edge24" class="edge"><title>11&#45;&gt;15</title>
<path fill="none" stroke="grey" stroke-width="2" d="M322.863,-648.411C345.239,-637.609 374.391,-623.535 397.153,-612.547"/>
<polygon fill="grey" stroke="grey" stroke-width="2" points="398.679,-615.697 406.163,-608.197 395.636,-609.393 398.679,-615.697"/>
</g>
<!-- 12&#45;&gt;10 -->
<g id="edge17" class="edge"><title>12&#45;&gt;10</title>
<path fill="none" stroke="grey" stroke-width="2" d="M198.608,-431.928C187.212,-405.671 167.5,-353.53 167.5,-307 167.5,-307 167.5,-307 167.5,-161 167.5,-114.962 186.773,-103.336 220.5,-72 240.326,-53.579 267.763,-40.0958 289.755,-31.3393"/>
<polygon fill="grey" stroke="grey" stroke-width="2" points="291.026,-34.6005 299.118,-27.7618 288.528,-28.0615 291.026,-34.6005"/>
</g>
<!-- 13 -->
<g id="node14" class="node"><title>13</title>
<path fill="none" stroke="#56d8c1" stroke-width="2" d="M464.5,-540C464.5,-540 402.5,-540 402.5,-540 396.5,-540 390.5,-534 390.5,-528 390.5,-528 390.5,-516 390.5,-516 390.5,-510 396.5,-504 402.5,-504 402.5,-504 464.5,-504 464.5,-504 470.5,-504 476.5,-510 476.5,-516 476.5,-516 476.5,-528 476.5,-528 476.5,-534 470.5,-540 464.5,-540"/>
<text text-anchor="middle" x="433.5" y="-519.5" font-family="sans" font-size="10.00">filter_matches</text>
</g>
<!-- 13&#45;&gt;6 -->
<g id="edge6" class="edge"><title>13&#45;&gt;6</title>
<path fill="none" stroke="grey" stroke-width="2" d="M433.5,-503.697C433.5,-495.983 433.5,-486.712 433.5,-478.112"/>
<polygon fill="grey" stroke="grey" stroke-width="2" points="437,-478.104 433.5,-468.104 430,-478.104 437,-478.104"/>
</g>
<!-- 14&#45;&gt;5 -->
<g id="edge5" class="edge"><title>14&#45;&gt;5</title>
<path fill="none" stroke="grey" stroke-width="2" d="M330.5,-359.697C330.5,-351.983 330.5,-342.712 330.5,-334.112"/>
<polygon fill="grey" stroke="grey" stroke-width="2" points="334,-334.104 330.5,-324.104 327,-334.104 334,-334.104"/>
</g>
<!-- 15&#45;&gt;10 -->
<g id="edge19" class="edge"><title>15&#45;&gt;10</title>
<path fill="none" stroke="grey" stroke-width="2" d="M455.738,-575.925C484.652,-551.604 531.5,-504.018 531.5,-451 531.5,-451 531.5,-451 531.5,-161 531.5,-80.3362 422.917,-41.8708 363.801,-26.9065"/>
<polygon fill="grey" stroke="grey" stroke-width="2" points="364.266,-23.4177 353.722,-24.4611 362.615,-30.2203 364.266,-23.4177"/>
</g>
<!-- 15&#45;&gt;13 -->
<g id="edge21" class="edge"><title>15&#45;&gt;13</title>
<path fill="none" stroke="grey" stroke-width="2" d="M433.5,-575.697C433.5,-567.983 433.5,-558.712 433.5,-550.112"/>
<polygon fill="grey" stroke="grey" stroke-width="2" points="437,-550.104 433.5,-540.104 430,-550.104 437,-550.104"/>
</g>
</g>
</svg>
