<?xml version="1.0" encoding="UTF-8" standalone="no"?>
<!DOCTYPE svg PUBLIC "-//W3C//DTD SVG 1.1//EN"
 "http://www.w3.org/Graphics/SVG/1.1/DTD/svg11.dtd">
<!-- Generated by graphviz version 2.38.0 (20140413.2041)
 -->
<!-- Title: snakemake_dag Pages: 1 -->
<svg width="514pt" height="692pt"
 viewBox="0.00 0.00 513.50 692.00" xmlns="http://www.w3.org/2000/svg" xmlns:xlink="http://www.w3.org/1999/xlink">
<g id="graph0" class="graph" transform="scale(1 1) rotate(0) translate(4 688)">
<title>snakemake_dag</title>
<polygon fill="white" stroke="none" points="-4,4 -4,-688 509.5,-688 509.5,4 -4,4"/>
<!-- 0 -->
<g id="node1" class="node"><title>0</title>
<path fill="none" stroke="#d87556" stroke-width="2" d="M43,-540C43,-540 12,-540 12,-540 6,-540 0,-534 0,-528 0,-528 0,-516 0,-516 0,-510 6,-504 12,-504 12,-504 43,-504 43,-504 49,-504 55,-510 55,-516 55,-516 55,-528 55,-528 55,-534 49,-540 43,-540"/>
<text text-anchor="middle" x="27.5" y="-519.5" font-family="sans" font-size="10.00">phobius</text>
</g>
<!-- 1 -->
<g id="node2" class="node"><title>1</title>
<path fill="none" stroke="#d85656" stroke-width="2" d="M230.5,-36C230.5,-36 200.5,-36 200.5,-36 194.5,-36 188.5,-30 188.5,-24 188.5,-24 188.5,-12 188.5,-12 188.5,-6 194.5,-0 200.5,-0 200.5,-0 230.5,-0 230.5,-0 236.5,-0 242.5,-6 242.5,-12 242.5,-12 242.5,-24 242.5,-24 242.5,-30 236.5,-36 230.5,-36"/>
<text text-anchor="middle" x="215.5" y="-15.5" font-family="sans" font-size="10.00">results</text>
</g>
<!-- 0&#45;&gt;1 -->
<g id="edge3" class="edge"><title>0&#45;&gt;1</title>
<path fill="none" stroke="grey" stroke-width="2" d="M27.5,-503.951C27.5,-477.292 27.5,-424.115 27.5,-379 27.5,-379 27.5,-379 27.5,-161 27.5,-86.1051 123.677,-45.7028 178.45,-28.7662"/>
<polygon fill="grey" stroke="grey" stroke-width="2" points="179.578,-32.0823 188.163,-25.8738 177.58,-25.3734 179.578,-32.0823"/>
</g>
<!-- 2 -->
<g id="node3" class="node"><title>2</title>
<path fill="none" stroke="#d6d856" stroke-width="2" d="M133.5,-684C133.5,-684 89.5,-684 89.5,-684 83.5,-684 77.5,-678 77.5,-672 77.5,-672 77.5,-660 77.5,-660 77.5,-654 83.5,-648 89.5,-648 89.5,-648 133.5,-648 133.5,-648 139.5,-648 145.5,-654 145.5,-660 145.5,-660 145.5,-672 145.5,-672 145.5,-678 139.5,-684 133.5,-684"/>
<text text-anchor="middle" x="111.5" y="-663.5" font-family="sans" font-size="10.00">user_input</text>
</g>
<!-- 2&#45;&gt;0 -->
<g id="edge1" class="edge"><title>2&#45;&gt;0</title>
<path fill="none" stroke="grey" stroke-width="2" d="M96.8777,-647.996C88.587,-637.911 78.337,-624.661 70.5,-612 58.0788,-591.932 46.5931,-567.74 38.6228,-549.646"/>
<polygon fill="grey" stroke="grey" stroke-width="2" points="41.7563,-548.074 34.5729,-540.286 35.332,-550.854 41.7563,-548.074"/>
</g>
<!-- 5 -->
<g id="node6" class="node"><title>5</title>
<path fill="none" stroke="#567bd8" stroke-width="2" d="M99,-468C99,-468 68,-468 68,-468 62,-468 56,-462 56,-456 56,-456 56,-444 56,-444 56,-438 62,-432 68,-432 68,-432 99,-432 99,-432 105,-432 111,-438 111,-444 111,-444 111,-456 111,-456 111,-462 105,-468 99,-468"/>
<text text-anchor="middle" x="83.5" y="-447.5" font-family="sans" font-size="10.00">interpro</text>
</g>
<!-- 2&#45;&gt;5 -->
<g id="edge13" class="edge"><title>2&#45;&gt;5</title>
<path fill="none" stroke="grey" stroke-width="2" d="M108.792,-647.831C107.186,-637.464 105.149,-623.984 103.5,-612 97.0512,-565.12 90.4528,-510.429 86.6786,-478.372"/>
<polygon fill="grey" stroke="grey" stroke-width="2" points="90.1516,-477.936 85.5113,-468.412 83.1992,-478.751 90.1516,-477.936"/>
</g>
<!-- 11 -->
<g id="node12" class="node"><title>11</title>
<path fill="none" stroke="#d89556" stroke-width="2" d="M154.5,-612C154.5,-612 124.5,-612 124.5,-612 118.5,-612 112.5,-606 112.5,-600 112.5,-600 112.5,-588 112.5,-588 112.5,-582 118.5,-576 124.5,-576 124.5,-576 154.5,-576 154.5,-576 160.5,-576 166.5,-582 166.5,-588 166.5,-588 166.5,-600 166.5,-600 166.5,-606 160.5,-612 154.5,-612"/>
<text text-anchor="middle" x="139.5" y="-591.5" font-family="sans" font-size="10.00">blast</text>
</g>
<!-- 2&#45;&gt;11 -->
<g id="edge19" class="edge"><title>2&#45;&gt;11</title>
<path fill="none" stroke="grey" stroke-width="2" d="M118.421,-647.697C121.575,-639.813 125.378,-630.304 128.881,-621.546"/>
<polygon fill="grey" stroke="grey" stroke-width="2" points="132.194,-622.689 132.658,-612.104 125.695,-620.089 132.194,-622.689"/>
</g>
<!-- 12 -->
<g id="node13" class="node"><title>12</title>
<path fill="none" stroke="#569ad8" stroke-width="2" d="M315.5,-396C315.5,-396 277.5,-396 277.5,-396 271.5,-396 265.5,-390 265.5,-384 265.5,-384 265.5,-372 265.5,-372 265.5,-366 271.5,-360 277.5,-360 277.5,-360 315.5,-360 315.5,-360 321.5,-360 327.5,-366 327.5,-372 327.5,-372 327.5,-384 327.5,-384 327.5,-390 321.5,-396 315.5,-396"/>
<text text-anchor="middle" x="296.5" y="-375.5" font-family="sans" font-size="10.00">orthologs</text>
</g>
<!-- 2&#45;&gt;12 -->
<g id="edge21" class="edge"><title>2&#45;&gt;12</title>
<path fill="none" stroke="grey" stroke-width="2" d="M145.53,-650.422C185.39,-631.368 249.862,-593.947 280.5,-540 304.282,-498.125 303.386,-440.128 300.2,-406.384"/>
<polygon fill="grey" stroke="grey" stroke-width="2" points="303.668,-405.898 299.113,-396.332 296.708,-406.65 303.668,-405.898"/>
</g>
<!-- 3 -->
<g id="node4" class="node"><title>3</title>
<path fill="none" stroke="#d8b456" stroke-width="2" d="M323.5,-324C323.5,-324 269.5,-324 269.5,-324 263.5,-324 257.5,-318 257.5,-312 257.5,-312 257.5,-300 257.5,-300 257.5,-294 263.5,-288 269.5,-288 269.5,-288 323.5,-288 323.5,-288 329.5,-288 335.5,-294 335.5,-300 335.5,-300 335.5,-312 335.5,-312 335.5,-318 329.5,-324 323.5,-324"/>
<text text-anchor="middle" x="296.5" y="-303.5" font-family="sans" font-size="10.00">extract_data</text>
</g>
<!-- 6 -->
<g id="node7" class="node"><title>6</title>
<path fill="none" stroke="#56d89a" stroke-width="2" d="M247.5,-180C247.5,-180 217.5,-180 217.5,-180 211.5,-180 205.5,-174 205.5,-168 205.5,-168 205.5,-156 205.5,-156 205.5,-150 211.5,-144 217.5,-144 217.5,-144 247.5,-144 247.5,-144 253.5,-144 259.5,-150 259.5,-156 259.5,-156 259.5,-168 259.5,-168 259.5,-174 253.5,-180 247.5,-180"/>
<text text-anchor="middle" x="232.5" y="-159.5" font-family="sans" font-size="10.00">kegg</text>
</g>
<!-- 3&#45;&gt;6 -->
<g id="edge14" class="edge"><title>3&#45;&gt;6</title>
<path fill="none" stroke="grey" stroke-width="2" d="M288.78,-287.871C277.776,-263.457 257.481,-218.426 244.505,-189.635"/>
<polygon fill="grey" stroke="grey" stroke-width="2" points="247.547,-187.868 240.247,-180.189 241.165,-190.744 247.547,-187.868"/>
</g>
<!-- 7 -->
<g id="node8" class="node"><title>7</title>
<path fill="none" stroke="#59d856" stroke-width="2" d="M305.5,-108C305.5,-108 255.5,-108 255.5,-108 249.5,-108 243.5,-102 243.5,-96 243.5,-96 243.5,-84 243.5,-84 243.5,-78 249.5,-72 255.5,-72 255.5,-72 305.5,-72 305.5,-72 311.5,-72 317.5,-78 317.5,-84 317.5,-84 317.5,-96 317.5,-96 317.5,-102 311.5,-108 305.5,-108"/>
<text text-anchor="middle" x="280.5" y="-87.5" font-family="sans" font-size="10.00">interactions</text>
</g>
<!-- 3&#45;&gt;7 -->
<g id="edge15" class="edge"><title>3&#45;&gt;7</title>
<path fill="none" stroke="grey" stroke-width="2" d="M295.218,-287.849C292.45,-250.832 285.897,-163.181 282.548,-118.386"/>
<polygon fill="grey" stroke="grey" stroke-width="2" points="286.024,-117.944 281.788,-108.232 279.044,-118.466 286.024,-117.944"/>
</g>
<!-- 13 -->
<g id="node14" class="node"><title>13</title>
<path fill="none" stroke="#78d856" stroke-width="2" d="M365.5,-252C365.5,-252 327.5,-252 327.5,-252 321.5,-252 315.5,-246 315.5,-240 315.5,-240 315.5,-228 315.5,-228 315.5,-222 321.5,-216 327.5,-216 327.5,-216 365.5,-216 365.5,-216 371.5,-216 377.5,-222 377.5,-228 377.5,-228 377.5,-240 377.5,-240 377.5,-246 371.5,-252 365.5,-252"/>
<text text-anchor="middle" x="346.5" y="-231.5" font-family="sans" font-size="10.00">literature</text>
</g>
<!-- 3&#45;&gt;13 -->
<g id="edge22" class="edge"><title>3&#45;&gt;13</title>
<path fill="none" stroke="grey" stroke-width="2" d="M308.86,-287.697C314.733,-279.474 321.869,-269.483 328.342,-260.421"/>
<polygon fill="grey" stroke="grey" stroke-width="2" points="331.318,-262.276 334.283,-252.104 325.622,-258.207 331.318,-262.276"/>
</g>
<!-- 14 -->
<g id="node15" class="node"><title>14</title>
<path fill="none" stroke="#56b9d8" stroke-width="2" d="M491.5,-252C491.5,-252 407.5,-252 407.5,-252 401.5,-252 395.5,-246 395.5,-240 395.5,-240 395.5,-228 395.5,-228 395.5,-222 401.5,-216 407.5,-216 407.5,-216 491.5,-216 491.5,-216 497.5,-216 503.5,-222 503.5,-228 503.5,-228 503.5,-240 503.5,-240 503.5,-246 497.5,-252 491.5,-252"/>
<text text-anchor="middle" x="449.5" y="-231.5" font-family="sans" font-size="10.00">uniprot_sequences</text>
</g>
<!-- 3&#45;&gt;14 -->
<g id="edge23" class="edge"><title>3&#45;&gt;14</title>
<path fill="none" stroke="grey" stroke-width="2" d="M333.928,-287.876C354.751,-278.349 380.854,-266.407 402.981,-256.283"/>
<polygon fill="grey" stroke="grey" stroke-width="2" points="404.556,-259.411 412.194,-252.068 401.644,-253.046 404.556,-259.411"/>
</g>
<!-- 4 -->
<g id="node5" class="node"><title>4</title>
<path fill="none" stroke="#97d856" stroke-width="2" d="M493.5,-108C493.5,-108 423.5,-108 423.5,-108 417.5,-108 411.5,-102 411.5,-96 411.5,-96 411.5,-84 411.5,-84 411.5,-78 417.5,-72 423.5,-72 423.5,-72 493.5,-72 493.5,-72 499.5,-72 505.5,-78 505.5,-84 505.5,-84 505.5,-96 505.5,-96 505.5,-102 499.5,-108 493.5,-108"/>
<text text-anchor="middle" x="458.5" y="-87.5" font-family="sans" font-size="10.00">clustal_to_fasta</text>
</g>
<!-- 4&#45;&gt;1 -->
<g id="edge8" class="edge"><title>4&#45;&gt;1</title>
<path fill="none" stroke="grey" stroke-width="2" d="M411.359,-75.4203C364.849,-62.0223 294.718,-41.8199 252.207,-29.574"/>
<polygon fill="grey" stroke="grey" stroke-width="2" points="253.12,-26.1947 242.542,-26.7897 251.182,-32.9211 253.12,-26.1947"/>
</g>
<!-- 5&#45;&gt;1 -->
<g id="edge9" class="edge"><title>5&#45;&gt;1</title>
<path fill="none" stroke="grey" stroke-width="2" d="M85.2781,-431.973C87.901,-405.343 92.5,-352.205 92.5,-307 92.5,-307 92.5,-307 92.5,-161 92.5,-118.813 98.4248,-104.353 125.5,-72 139.671,-55.0664 160.725,-42.2504 178.907,-33.4662"/>
<polygon fill="grey" stroke="grey" stroke-width="2" points="180.477,-36.5965 188.101,-29.2397 177.553,-30.2363 180.477,-36.5965"/>
</g>
<!-- 6&#45;&gt;1 -->
<g id="edge10" class="edge"><title>6&#45;&gt;1</title>
<path fill="none" stroke="grey" stroke-width="2" d="M230.449,-143.871C227.552,-119.67 222.229,-75.2108 218.779,-46.3932"/>
<polygon fill="grey" stroke="grey" stroke-width="2" points="222.222,-45.7023 217.558,-36.1893 215.271,-46.5344 222.222,-45.7023"/>
</g>
<!-- 7&#45;&gt;1 -->
<g id="edge2" class="edge"><title>7&#45;&gt;1</title>
<path fill="none" stroke="grey" stroke-width="2" d="M264.433,-71.6966C256.561,-63.2198 246.945,-52.8636 238.327,-43.5826"/>
<polygon fill="grey" stroke="grey" stroke-width="2" points="240.752,-41.0507 231.383,-36.1043 235.622,-45.8139 240.752,-41.0507"/>
</g>
<!-- 8 -->
<g id="node9" class="node"><title>8</title>
<path fill="none" stroke="#56d8d8" stroke-width="2" d="M265,-468C265,-468 180,-468 180,-468 174,-468 168,-462 168,-456 168,-456 168,-444 168,-444 168,-438 174,-432 180,-432 180,-432 265,-432 265,-432 271,-432 277,-438 277,-444 277,-444 277,-456 277,-456 277,-462 271,-468 265,-468"/>
<text text-anchor="middle" x="222.5" y="-447.5" font-family="sans" font-size="10.00">uniprot_annotation</text>
</g>
<!-- 8&#45;&gt;1 -->
<g id="edge7" class="edge"><title>8&#45;&gt;1</title>
<path fill="none" stroke="grey" stroke-width="2" d="M213.176,-431.63C199.995,-405.412 177.5,-353.809 177.5,-307 177.5,-307 177.5,-307 177.5,-161 177.5,-119.633 192.735,-73.7216 203.912,-45.6051"/>
<polygon fill="grey" stroke="grey" stroke-width="2" points="207.256,-46.6733 207.81,-36.0929 200.779,-44.0187 207.256,-46.6733"/>
</g>
<!-- 8&#45;&gt;12 -->
<g id="edge20" class="edge"><title>8&#45;&gt;12</title>
<path fill="none" stroke="grey" stroke-width="2" d="M240.792,-431.697C249.933,-423.05 261.14,-412.449 271.1,-403.027"/>
<polygon fill="grey" stroke="grey" stroke-width="2" points="273.559,-405.519 278.418,-396.104 268.748,-400.434 273.559,-405.519"/>
</g>
<!-- 9 -->
<g id="node10" class="node"><title>9</title>
<path fill="none" stroke="#56d8b9" stroke-width="2" d="M464.5,-180C464.5,-180 434.5,-180 434.5,-180 428.5,-180 422.5,-174 422.5,-168 422.5,-168 422.5,-156 422.5,-156 422.5,-150 428.5,-144 434.5,-144 434.5,-144 464.5,-144 464.5,-144 470.5,-144 476.5,-150 476.5,-156 476.5,-156 476.5,-168 476.5,-168 476.5,-174 470.5,-180 464.5,-180"/>
<text text-anchor="middle" x="449.5" y="-159.5" font-family="sans" font-size="10.00">msa</text>
</g>
<!-- 9&#45;&gt;1 -->
<g id="edge4" class="edge"><title>9&#45;&gt;1</title>
<path fill="none" stroke="grey" stroke-width="2" d="M433.766,-143.785C412.653,-120.985 375.912,-82.4329 359.5,-72 325.971,-50.6861 282.635,-36.2181 252.298,-27.8534"/>
<polygon fill="grey" stroke="grey" stroke-width="2" points="253.106,-24.4465 242.542,-25.2496 251.301,-31.2098 253.106,-24.4465"/>
</g>
<!-- 9&#45;&gt;4 -->
<g id="edge12" class="edge"><title>9&#45;&gt;4</title>
<path fill="none" stroke="grey" stroke-width="2" d="M451.725,-143.697C452.717,-135.983 453.908,-126.712 455.014,-118.112"/>
<polygon fill="grey" stroke="grey" stroke-width="2" points="458.497,-118.469 456.301,-108.104 451.554,-117.576 458.497,-118.469"/>
</g>
<!-- 10 -->
<g id="node11" class="node"><title>10</title>
<path fill="none" stroke="#b6d856" stroke-width="2" d="M259.5,-540C259.5,-540 181.5,-540 181.5,-540 175.5,-540 169.5,-534 169.5,-528 169.5,-528 169.5,-516 169.5,-516 169.5,-510 175.5,-504 181.5,-504 181.5,-504 259.5,-504 259.5,-504 265.5,-504 271.5,-510 271.5,-516 271.5,-516 271.5,-528 271.5,-528 271.5,-534 265.5,-540 259.5,-540"/>
<text text-anchor="middle" x="220.5" y="-519.5" font-family="sans" font-size="10.00">analyze_matches</text>
</g>
<!-- 10&#45;&gt;8 -->
<g id="edge16" class="edge"><title>10&#45;&gt;8</title>
<path fill="none" stroke="grey" stroke-width="2" d="M220.994,-503.697C221.215,-495.983 221.48,-486.712 221.725,-478.112"/>
<polygon fill="grey" stroke="grey" stroke-width="2" points="225.224,-478.2 222.011,-468.104 218.227,-478 225.224,-478.2"/>
</g>
<!-- 11&#45;&gt;1 -->
<g id="edge5" class="edge"><title>11&#45;&gt;1</title>
<path fill="none" stroke="grey" stroke-width="2" d="M139.5,-575.951C139.5,-549.292 139.5,-496.115 139.5,-451 139.5,-451 139.5,-451 139.5,-161 139.5,-115.641 170.017,-70.7492 192.375,-43.9457"/>
<polygon fill="grey" stroke="grey" stroke-width="2" points="195.145,-46.0926 199.009,-36.2276 189.836,-41.5297 195.145,-46.0926"/>
</g>
<!-- 11&#45;&gt;10 -->
<g id="edge18" class="edge"><title>11&#45;&gt;10</title>
<path fill="none" stroke="grey" stroke-width="2" d="M159.522,-575.697C169.626,-566.965 182.036,-556.24 193.018,-546.75"/>
<polygon fill="grey" stroke="grey" stroke-width="2" points="195.43,-549.291 200.708,-540.104 190.853,-543.995 195.43,-549.291"/>
</g>
<!-- 12&#45;&gt;3 -->
<g id="edge11" class="edge"><title>12&#45;&gt;3</title>
<path fill="none" stroke="grey" stroke-width="2" d="M296.5,-359.697C296.5,-351.983 296.5,-342.712 296.5,-334.112"/>
<polygon fill="grey" stroke="grey" stroke-width="2" points="300,-334.104 296.5,-324.104 293,-334.104 300,-334.104"/>
</g>
<!-- 13&#45;&gt;1 -->
<g id="edge6" class="edge"><title>13&#45;&gt;1</title>
<path fill="none" stroke="grey" stroke-width="2" d="M349.337,-215.823C353.582,-184.142 358.036,-115.759 326.5,-72 309.052,-47.7893 277.577,-34.2177 252.588,-26.8842"/>
<polygon fill="grey" stroke="grey" stroke-width="2" points="253.249,-23.4373 242.682,-24.1968 251.416,-30.1931 253.249,-23.4373"/>
</g>
<!-- 14&#45;&gt;9 -->
<g id="edge17" class="edge"><title>14&#45;&gt;9</title>
<path fill="none" stroke="grey" stroke-width="2" d="M449.5,-215.697C449.5,-207.983 449.5,-198.712 449.5,-190.112"/>
<polygon fill="grey" stroke="grey" stroke-width="2" points="453,-190.104 449.5,-180.104 446,-190.104 453,-190.104"/>
</g>
</g>
</svg>
